<?xml version="1.0" encoding="UTF-8" standalone="no"?>
<!DOCTYPE svg PUBLIC "-//W3C//DTD SVG 1.1//EN" "http://www.w3.org/Graphics/SVG/1.1/DTD/svg11.dtd">
<svg width="100%" height="100%" viewBox="0 0 101 42" version="1.1" xmlns="http://www.w3.org/2000/svg" xmlns:xlink="http://www.w3.org/1999/xlink" xml:space="preserve" xmlns:serif="http://www.serif.com/" style="fill-rule:evenodd;clip-rule:evenodd;stroke-linejoin:round;stroke-miterlimit:2;">
    <g transform="matrix(1,0,0,1,-386.568332,-336.162465)">
        <g transform="matrix(1.875,0,0,1.875,0,0)">
            <g transform="matrix(0.056186,0,0,0.056186,206.242644,179.286648)">
                <path d="M139.5,0L142.5,0C142.18,2.422 141.771,5.515 142.051,30.529C142.103,35.159 206.654,71.781 216.078,78.921C217.595,80.07 216.48,190.505 216.799,223.497C216.852,229.005 260.459,239.301 281.452,247.588C285.643,249.243 282.754,378.609 282.5,389.999L141.5,389.999C141.411,356.374 141.521,356.423 141.481,353.504C141.436,350.264 49.718,361.317 41.417,360.805C39.365,360.679 39.178,321.206 41.579,320.694C46.299,319.686 113.227,310.094 119.461,309.201C150.501,304.752 150.478,307.269 181.513,311.409C190.175,312.565 189.114,307.196 189.106,298.5C189.098,288.641 190.07,284.686 180.459,282.683C144.297,275.147 144.187,273.908 130.536,276.667C123.372,278.115 42.348,294.491 40.699,293.259C39.602,292.44 40.187,254.797 40.314,254.424C41.21,251.791 129.65,231.186 137.467,229.365C141.083,228.522 143.491,227.961 182.627,240.055C184.514,240.638 185.573,239.414 185.241,215.504C185.195,212.182 184.328,211.539 146.694,200.054C138.221,197.468 138.043,199.442 42.484,225.445C39.776,226.181 39.275,224.19 40.187,190.442C40.228,188.924 49.541,185.55 50.404,185.238C139.246,153.053 139.261,150.872 145.647,153.102C162.637,159.035 182.215,167.193 183.528,167.29C186.265,167.492 186.356,142.175 183.362,140.802C180.132,139.32 148.288,124.714 142.592,123.177C140.617,122.643 42.837,163.653 42.221,164.055C38.224,166.67 40.417,125.844 40.647,125.618C43.755,122.567 131.421,74.597 139.365,70.251C141.807,68.914 142.521,68.284 141.475,35.505C141.273,29.175 139.097,36.649 133.254,39.048C130.214,40.296 26.072,106.018 25.536,106.533C23.553,108.439 25.499,323.822 24.5,389.999L-0,389.999C-2.918,386.574 0,381 0,376.5L0,88.5C3.921,88.003 136.412,3.378 139.5,0Z" style="fill:rgb(0,190,113);fill-opacity:1;"/>
            </g>
        </g>
        <g transform="matrix(1,0,0,1,-7,227.048025)">
            <path d="M435.956,141.813L435.956,121.502L443.958,121.502C445.484,121.502 446.8,121.777 447.904,122.327C449.008,122.877 449.858,123.653 450.453,124.658C451.048,125.662 451.346,126.845 451.346,128.209C451.346,129.563 451.044,130.742 450.439,131.746C449.835,132.75 448.976,133.529 447.863,134.084C446.75,134.638 445.425,134.915 443.89,134.915L438.383,134.915L438.383,131.426L443.576,131.426C444.339,131.426 444.991,131.294 445.532,131.03C446.073,130.767 446.486,130.392 446.773,129.906C447.059,129.419 447.202,128.854 447.202,128.209C447.202,127.545 447.059,126.977 446.773,126.505C446.486,126.032 446.073,125.664 445.532,125.401C444.991,125.137 444.339,125.005 443.576,125.005L440.141,125.005L440.141,141.813L435.956,141.813Z" style="fill-rule:nonzero;"/>
        </g>
        <g transform="matrix(1,0,0,1,-7,227.048025)">
            <path d="M450.037,141.813L457.125,121.502L462.537,121.502L469.666,141.813L465.018,141.813L461.815,131.944C461.424,130.653 461.022,129.306 460.608,127.902C460.195,126.498 459.752,124.919 459.279,123.165L460.383,123.165C459.902,124.919 459.456,126.5 459.047,127.909C458.639,129.317 458.234,130.662 457.834,131.944L454.576,141.813L450.037,141.813ZM454.522,137.328L454.522,133.988L465.181,133.988L465.181,137.328L454.522,137.328Z" style="fill-rule:nonzero;"/>
        </g>
        <g transform="matrix(1,0,0,1,-7,227.048025)">
            <rect x="471.493" y="121.502" width="4.185" height="20.31" style="fill-rule:nonzero;"/>
        </g>
        <g transform="matrix(1,0,0,1,-7,227.048025)">
            <path d="M477.968,125.06L477.968,121.502L494.502,121.502L494.502,125.06L488.341,125.06L488.341,141.813L484.156,141.813L484.156,125.06L477.968,125.06Z" style="fill-rule:nonzero;"/>
        </g>
    </g>
</svg>
